<svg xmlns="http://www.w3.org/2000/svg" viewBox="0 0 928.67 1260"><defs><style>.cls-1{fill:#f8db11;}.cls-2{fill:#3c68b0;}</style></defs><title>Ресурс 1</title><g id="Слой_2" data-name="Слой 2"><g id="Слой_1-2" data-name="Слой 1"><path class="cls-1" d="M467.3,557.76c4.19-3.51,3.83-9.2,4.67-13.46,3.16-16.14,6.77-32.2,9.76-48.39,13.29-72,10.79-144.75,10.77-217.4,0-33.26-3.4-66.38-3.39-99.62,0-4.38-2.6-8.38-2.09-12.94.18-1.59.5-2.67,2-3.27l12.35.53c1.75,6.35,1.8,12.87,2.29,19.38,3.08,40.67,2.4,81.45,3.89,122.16.73,20.14,1.29,40.31.59,60.38-.78,22-.73,44-2.63,65.89-1.87,21.54-4.39,43.09-7.92,64.43a742.76,742.76,0,0,1-20,85.74,44.54,44.54,0,0,1-1.8,4.48c-3.94,7.38-5.85,15.42-7.47,23.55-3.65,3.27-3.64,8.19-5.47,12.28-4,9-8.69,17.77-12.08,26.89-9.57,25.73-23.15,49.45-35.63,73.7-7.08,13.75-14.61,27.31-22.26,40.8-8.69,15.29-15.69,31.54-23.53,47.31a656.06,656.06,0,0,0-31.11,72.9c-7.3,20.59-14.65,41.24-18.28,63.08-3.2,19.2-5.27,38.33-4.5,57.75.14,3.47.67,7.18,5.06,7.73a101.87,101.87,0,0,0,12.48.61q50,.08,99.92.06c2.56,0,5.31-.15,7.64.69,4.25,1.54,6.27,4.46,3.72,9.14-2,3.64-4.73,5.06-9,5-20.17-.19-40.34-.1-60.52-.09-16.88,0-33.77.05-50.66,0-3.59,0-5.77.18-4.35,5s2,10,3.2,15a264.89,264.89,0,0,0,20.42,55.3,321.29,321.29,0,0,0,44.31,65.68,449.45,449.45,0,0,0,69.52,65.76c1.05.8,1.91,2.29,3.58,1.55,2-.88,1.43-2.81,1.44-4.32,0-9.14-.08-18.29-.11-27.43-.22-55.59,0-111.18-.85-166.76-.31-20.46-6.12-40-15.48-58.47-8.32-16.4-19.7-30.45-33-42.83a118.94,118.94,0,0,0-24.45-17.67c-10.86-5.83-22.7-9.82-34.06-14.73-2.76-1.19-5.22-2.75-5.54-6.39-.63-7.13,5.51-10.84,13.23-6.77s16,6.68,23.78,10.43c34.68,16.64,59.61,42.59,76.09,77.17,2.57,5.39,3.73,11.46,7.56,16.25l6.49,36.12c-1.29,6.37,1.28,12.48,1.28,18.79,0,20.59.22,41.18.36,61.77q.39,63.48.8,127c-2.92,5.93-2.22,11.88,0,17.82-6.8,6.27-8.81,5.91-16.17.77A485.09,485.09,0,0,1,404.72,1209a294.27,294.27,0,0,1-36.94-42.2c-7.27-10.23-15.95-19.58-22.67-30.32a318.42,318.42,0,0,1-34.78-75.94c-2.84-9.26-4.46-18.92-6.23-28.47-.63-3.4-1.85-5.07-5.34-5-4,.07-8,0-12,0-48.32,0-96.64.05-145-.12-28.1-.09-50.26-18.1-60.34-42.82A71.31,71.31,0,0,1,76.59,957c0-122.91-.17-245.83.42-368.73.06-12.44-5.1-21.34-10.77-31.1-4.71-8.09-9.78-16.55-9.84-26.25-.29-43.39-.2-86.79-.17-130.18,0-2.94-.85-6.8,2.38-8.26,2.37-1.08,4.73-4.62,8.11-1.81a11.12,11.12,0,0,1,4.51,9.43c-.36,19.45-.36,38.91-.44,58.37a10.92,10.92,0,0,0,.82,2.75c5-1.27,5.17-5,5.17-8.85,0-84.43-.18-168.87,0-253.3,0-15.82,6.79-28.73,20.56-37.19,11.78-7.24,31-5.15,43.49,4,7.82,5.68,13.93,13,20.51,19.92,19,19.91,32.43,43.42,44.94,67.81a479.24,479.24,0,0,1,22.43,50.64c6.24,16.63,11.47,33.57,16.23,50.7,4.84,17.4,8.81,35,12.91,52.56,2.58,11.1,4.49,22.37,6.36,33.61,2.86,17.1,5.61,34.22,8,51.38,1.13,8,1.67,16.2,2.35,24.25,1.34,15.85,4.1,31.57,4.19,47.55.06,10.49,2.73,20.82,2.48,31.45-.62,26-10.54,47.6-29.6,65.18-15.87,14.63-31.93,29.08-41.5,49.1-10.75,22.5-11.91,45.06-1,67.82,12.46,26.07,32.75,45,56.24,60.83,12.61,8.5,25.29,16.9,39.06,23.57,3.71,1.8,9.41,4.33,5.89,11.07-2.86,5.47-8.46,6.43-15,2.14-15.76-10.3-32.38-19.24-47.42-30.69-12.94-9.85-25.61-20.19-35.37-33.14-8.91-11.82-18.1-23.86-22.18-38.55-3.88-13.93-5.63-27.79-2.77-42.53,6.46-33.42,26.31-57.41,51.21-78.67,17.59-15,27.1-33.9,26.63-57.85-.58-29.29-4.41-58.26-7-87.34A544.36,544.36,0,0,0,250,447.82c-4.13-20.57-7.34-41.34-12.82-61.67-4.75-17.62-8.66-35.44-14.49-52.78-6.32-18.81-13.07-37.4-20.94-55.63-7.58-17.55-17.07-34-27.12-50.12a209.42,209.42,0,0,0-43.43-49.87c-7.5-6.29-17.15-6.06-25.32-2.66-8.86,3.7-13.55,11.62-13.51,22,.16,42.69.06,85.38.06,128.07s0,85.37,0,128.06c0,2.73-.67,5.62,1.35,8.33,3.43-1.23,2.23-4.18,2.24-6.39.11-18.06.07-36.12.14-54.18,0-4.34.51-8.64,5.88-9.76,6.24-1.31,9.93,2.34,9.94,9.84,0,37.3-1,74.63.39,111.87.76,20.86-7.08,37.76-17.35,54.36a14.91,14.91,0,0,0-2.58,8.31c0,126.9.4,253.8-.37,380.69-.15,24.2,11.53,39.51,29.54,51.73,4.52,3.06,11.68,3,17.63,3.06,52.07.28,104.14.18,156.21.4,4.94,0,5.82-1.92,5.7-6.22-.25-9.38-.24-18.77-.05-28.14.49-23.84,6.4-46.58,13.05-69.36a583.91,583.91,0,0,1,21.8-60.6c9-21.55,18.92-42.77,29.64-63.62,15.42-29.94,31.87-59.33,47.25-89.27a890.14,890.14,0,0,0,42-93.81c1.94-5.17,3-10.7,5.54-15.68C462.62,575.77,467.37,567.38,467.3,557.76Zm-383.9-.88c9.72-13.24,15.92-27,10.73-43.63-3-9.48-6-18.92-7.37-28.81-.28-2-.07-5.13-2.55-5.17-3.29-.07-2.58,3.47-2.57,5.42,0,3.88-2.5,6.75-3.17,10.43-1.82,10.16-4.62,20.16-7.06,30.21-.72,3-1.47,6,.14,8.81C75.68,541.4,78,549.59,83.4,556.88Z"/><path class="cls-2" d="M478.33,1255.33c-2.2-5.94-2.9-11.89,0-17.83,3-2.2,6.11-4.27,9-6.62,33.77-27.39,64.17-57.87,88.17-94.45,20.8-31.71,35.52-65.77,42.91-103,1.13-5.7-.33-6.58-5.66-6.55-34.94.22-69.89.12-104.84.1a49,49,0,0,1-8.41-.32c-3.68-.65-5.66-3.2-5.65-7s1.67-6.38,5.49-7.07a34.68,34.68,0,0,1,6.29-.35c36.12,0,72.24-.12,108.36.09,5.76,0,7.7-1.89,8-7.59a249.27,249.27,0,0,0-9.59-81.33C596.15,868.08,572,816.14,544.83,765.48c-27.4-51.16-56-101.73-76.52-156.26,1.62-8.13,3.53-16.17,7.47-23.55,17.57,53.54,44.13,102.86,71,152.07,31.67,58,60.88,117.2,79.66,180.9a243.32,243.32,0,0,1,9.77,85.51c-.4,6,.67,8.23,7.27,8.19,47.61-.25,95.23,0,142.84-.14,29.67-.09,52.32-23,52.37-52.81.08-57.69,0-115.38.14-173.07,0-5.71-.52-10.64-6.48-14.2V788c0,16.42-.16,32.84,0,49.25.08,6.1-3.17,8.33-8.43,8.31-5.44,0-6.1-4.25-6.11-8.37-.05-43.15-.4-86.31.17-129.46.2-14.82,9.16-26.83,17.18-38.62,2.24-3.29,3.6-6.1,3.59-10q-.18-163.25-.26-326.49c-.07-44.31-.7-88.62-.78-132.93,0-11.1-3.54-20.06-13.68-24.9-10.65-5.07-20.38-2.35-29.15,5.4-25,22.11-42.11,49.85-56.18,79.63-24.18,51.16-38.45,105.39-49.19,160.7C679.47,472.34,674.68,524.82,670,577.36c-2.82,31.58,5.4,57.66,31.25,77.43,9.29,7.1,16.88,16.17,24.28,25.31,31.75,39.17,32,86.23.89,125.85-24.6,31.31-57.2,52.2-91.42,71-4,2.19-8,1.54-10.32-2.7-2.44-4.54-.68-8.1,3.76-10.45a379.53,379.53,0,0,0,50.34-32c17.18-12.87,32.53-27.58,43.85-46,19-30.95,15.79-65.7-8.67-96.69a189,189,0,0,0-26.56-27c-23.83-20.22-34.34-45.83-32.29-77.16,3.41-52.44,8.56-104.67,18-156.37,11.47-63.09,27.33-124.94,56-182.74,14.89-30,33-57.76,59.37-79.17,11.68-9.47,24.77-12,38.86-6.26s23,16.17,24.46,31.57c1,10.7.77,21.54.78,32.32q.25,217.75.36,435.52a18.33,18.33,0,0,0,3.54,10.92c10.23,15.14,17.06,31,16.45,50.33-1.17,37.49-.34,75.05-.34,112.57,0,1.18-.05,2.35,0,3.52.2,5.26-1.88,9-7.49,8.82-5.17-.14-6.93-3.62-6.9-8.65.13-20.17,0-40.34,0-60.51v-4.67C853.28,774.83,853,779,853,783.5c.06,58.87.18,117.73,0,176.59-.09,27-12.64,47.1-36.45,59.59a66.68,66.68,0,0,1-31.6,7.37c-46.9-.18-93.81.09-140.72-.26-7.48,0-10.28,1.74-11.66,9.58-6.39,36.18-20.8,69.24-40.13,100.43-28.82,46.49-66.79,84.1-110.48,116.37C480.8,1254,479.53,1254.61,478.33,1255.33ZM846,759.39c3.21-12.6,5.57-25.49,9.85-37.71,5.72-16.35-2.57-28.18-10.68-41.63-5.86,10.27-13.65,19.08-12.32,30.64C834.79,727.3,840.14,743.25,846,759.39Z"/><path class="cls-2" d="M467.3,557.76c.07,9.62-4.68,18-6.89,27-8.66-22.11-13.76-45.22-18.52-68.37-15.59-75.81-16.14-152.64-15-229.57.53-35.39,1.59-70.77,3.51-106.12.35-6.28-.22-12.22,8.87-11.56,1.92.14,3.94-1,6.39-1.69-.83,17.53-1.72,34.56-2.42,51.6q-3.39,83.31-1.2,166.68c1.42,54.72,8.3,108.83,22.21,161.9C465.15,551.07,466.28,554.4,467.3,557.76Z"/><path class="cls-1" d="M53.94,950.76c-7.27-1.19-16.29-2.93-24.28-6.93-8.22-4.11-10.58-13.63-15.21-20.94-4.79-7.55-8.77-15.62-13-23.53-1.71-3.21-2.35-6.5.37-9.72s5.48-2.17,8.71-.79c13.63,5.79,26.09,13.7,38.85,21,9.24,5.32,10,15.38,12.31,24.44.55,2.22.45,4.49,1.29,6.79C65.32,947.45,62.47,950.93,53.94,950.76Z"/><path class="cls-1" d="M7.05,807.78c6.05-.19,9.89,4.64,14.9,6.81,8.78,3.82,16.83,9.24,25.34,13.7,10.1,5.28,12.28,15.21,14.15,24.84.92,4.7,4.19,9.63,1,14.87-1.16,1.89-1.94,4-4.55,3.35-11.26-2.85-24-2.27-32.78-11.31-7.62-7.85-12-18.08-16.34-28-2.13-4.88-5.48-8.88-7.63-13.65C-1.17,813.34,1.72,808,7.05,807.78Z"/><path class="cls-1" d="M286.88,976.68c.45,13.94-1,14.27-12,12-19.58-4-30-16.14-35.41-34.35-2-6.57-5.11-12.77-7.75-19.14a17.65,17.65,0,0,1-1-8.29c.45-6,2.66-7.34,8.11-4.59,14.29,7.23,26.82,17.14,39.09,27.19C286.76,956.81,286,968.33,286.88,976.68Z"/><path class="cls-1" d="M.24,575.26c.2-6.22,4.61-9,10-6.13,13.94,7.36,27.94,14.67,41.3,23,7.9,4.92,8.31,14.63,10,22.85.94,4.65,4.22,9.62.35,14.75-1.48,1.95-2.84,3.11-5.14,2.53-7.41-1.86-14.81-3.76-22.17-5.81-6.11-1.69-10.31-6-13.31-11.25C14.32,603.07,7.65,590.81,1,578.56A10.23,10.23,0,0,1,.24,575.26Z"/><path class="cls-1" d="M103.44,864.08c1.48-17.53,5.66-31.08,21.16-38.49,10.54-5,20.66-11,31-16.49,2.83-1.51,5.27-2.05,8.15.72a6.72,6.72,0,0,1,1.66,8.25,279.4,279.4,0,0,1-14.18,26.79c-2.45,3.91-3.38,8.39-6.55,12.12-6.17,7.26-14,10.47-22.82,12.13-2.52.47-5.17.33-7.66.92C105.26,872.17,103.23,870.7,103.44,864.08Z"/><path class="cls-1" d="M52.67,790.7c-8.2-.6-17.4-4.09-26.11-8.78-2.84-1.53-3.9-5-5.47-7.81C14.19,761.9,6,750.39,1.38,736.93c-.78-2.3-1.54-4.13.52-6.37a5.87,5.87,0,0,1,7-1.58c16,6.73,31.59,14.14,44.92,25.4,6.06,5.12,5.81,13.28,7.88,20.24.59,2,.24,4.24.72,6.27C64.31,788.94,62.62,791.13,52.67,790.7Z"/><path class="cls-2" d="M418.8,388.73c.34,10-2,12.37-9.14,10.82-15.5-3.39-29.57-8.49-34.94-26.13-3.18-10.46-8.05-20.41-12.27-30.55-1.41-3.37-1.53-6.49,1.44-8.91s5.7-1,8.41.69q18.51,11.44,35.9,24.49a19.62,19.62,0,0,1,7.54,12.23C417.13,378,418.1,384.72,418.8,388.73Z"/><path class="cls-1" d="M111.07,950.73c-7.37,1.48-7.68-3.52-7.42-8.43,1-19.42,9.63-33.7,28.1-41.43A253,253,0,0,0,154.69,890c4.46-2.43,7.36.55,10.18,2.25,2.38,1.44.77,4.83-.37,7-6.47,12.22-13.16,24.3-19.69,36.48-4.19,7.81-12.45,9.23-19.54,12C120.9,949.5,116.07,951.26,111.07,950.73Z"/><path class="cls-2" d="M618.18,720.55c-.6,8.69-1.72,16.4-1.54,24.09.45,18.3-13.54,25.49-25.65,34-3.46,2.43-7-.11-8.18-3.94-5-15.68-8.72-31.06,4-45.51,6.77-7.66,12.16-16.55,18.12-24.93,2.14-3,4.55-5.66,8.64-4.51s4.67,4.7,4.59,8.45C618.1,712.61,618.18,717.06,618.18,720.55Z"/><path class="cls-1" d="M103.79,701.35C104,692.1,107.43,684,112,676.1c2.21-3.78,5.51-6.05,9.14-7.94,11.15-5.81,21.51-13.07,33.38-17.58,4.07-1.55,7.38-1,10.16,1.8,2.63,2.67.76,5.46-.51,8.31-5.16,11.65-13.51,21.65-18.72,32.93C140,705.47,130.17,706,120.74,709.08c-1.54.51-3.22.6-4.75,1.12C106.6,713.41,103.5,711.18,103.79,701.35Z"/><path class="cls-1" d="M104.08,778.89c2.21-13.15,6.1-27.26,23.31-34.38,8.64-3.58,17-8.66,25.26-13.44,3.88-2.25,7.94-4.16,11.56-1,4.3,3.71,1.22,8.77-.52,12.2-5.15,10.19-11.65,19.69-17,29.79-4.71,8.91-12.1,13.77-21.45,15.75-3.89.82-7.63,2.16-11.52,2.82C105.07,792.06,103.26,790.32,104.08,778.89Z"/><path class="cls-2" d="M873.59,287a84.54,84.54,0,0,1,23.7,6,18.51,18.51,0,0,1,8.88,7.67c7.83,12.48,14.67,25.48,21.24,38.65,1.52,3.06,1.83,5.83-.76,8.31s-5.68,2-8.47.53c-10.93-5.78-21.55-12.21-32.74-17.44-12.84-6-15.71-17.57-18.38-29.55a54.45,54.45,0,0,1-.87-6.24C865.56,288.84,867.71,286.56,873.59,287Z"/><path class="cls-1" d="M114.26,630.4c-10.26.58-10.67.11-10.45-8.67.24-9.64,3.87-18.44,8-26.75,1.79-3.61,6.77-6,10.73-8.13,10.67-5.77,21.69-10.88,32.3-16.73,3.67-2,6.31-2.24,9.32.62s2,5.67.37,8.68c-5.07,9.26-10.82,18.23-14.95,27.89C142.48,623.88,129,629.26,114.26,630.4Z"/><path class="cls-2" d="M826,452.68c-2.87,15.89-4.58,31.36-21.7,38.8C793.88,496,784.06,502.06,774,507.54c-3.18,1.74-6.19,2.35-9-.37s-1.82-5.84-.23-9c6.14-12.07,12.49-24,19.38-35.7a24.46,24.46,0,0,1,15.73-11.81c5.88-1.51,11.81-2.84,17.75-4.07C823.05,445.51,825.4,448.38,826,452.68Z"/><path class="cls-2" d="M826,538.36c-4.07,9.58-4,23.1-17.35,30.28-11.54,6.19-22.9,12.73-34.56,18.69-3.08,1.58-6.2,2.42-9.06-.38s-1.83-5.89-.17-9c6.14-11.32,12.35-22.59,18.28-34,4-7.64,10.2-11.92,18.37-13.83,4.33-1,8.6-2.3,13-3.2C823.71,525,825.64,526.63,826,538.36Z"/><path class="cls-2" d="M865.77,533.29c.31-5.45,3.29-7.67,8-6.94,15.67,2.47,30.83,5.48,38.13,22.72,4.26,10.06,10.13,19.44,15.33,29.1,1.7,3.16,2.3,6.24-.61,8.94-2.6,2.41-5.51,2-8.42.45-10.89-5.88-21.66-12-32.72-17.54-9.33-4.68-14.55-12-16.53-22C867.91,543,866.77,538,865.77,533.29Z"/><path class="cls-2" d="M872.78,606.23c17.15,2.28,32.38,5.9,39.66,23.77,3.95,9.68,9.71,18.63,14.71,27.88,1.69,3.13,2.47,6.22-.32,9s-5.86,2-9,.31c-12.49-6.88-25-13.64-37.51-20.55a18.91,18.91,0,0,1-8.13-9.35c-3.25-7.36-4.78-15.15-6.08-23C865.18,608.59,867.75,606,872.78,606.23Z"/><path class="cls-2" d="M817.42,366.63c6.92-.09,9,2.79,8.25,8.88-2,17.12-7.88,31.4-25.48,38.56-9,3.67-17.37,9-26.05,13.6-3,1.6-6.21,2.48-9.07-.28s-1.82-5.86-.16-8.92q9.32-17.24,18.52-34.54a25.41,25.41,0,0,1,17.77-13.48C807.12,369.13,813,367.67,817.42,366.63Z"/><path class="cls-1" d="M62.13,698.75c.43,11.5-1,12-10.09,11.18-6.35-.6-12-3.61-18.32-3.91-3-.14-4.6-2.74-6.67-4.52-9.39-8.06-12.24-20.12-18.53-30.07-2.57-4.07-4.18-8.74-6.41-13-1.19-2.28-2.91-4.08-.35-6.77s5.09-3.6,8.49-1.88C20.69,655,31,660.62,41.64,665.41,57.48,672.54,61.42,686.05,62.13,698.75Z"/><path class="cls-2" d="M816.11,287.05c8.37-.5,10.32,2.74,9.61,7.77-1.42,10-3.43,19.86-9.66,28.09-4.48,5.91-11.65,8.43-17.75,12.18-7.76,4.76-16.15,8.5-24.24,12.73-3.13,1.63-6.33,2.38-9.07-.35s-1.76-6-.08-9c6-11.11,12.06-22.21,17.89-33.43,4.07-7.8,10.2-12.59,18.8-14.44C807.32,289.34,813,287.81,816.11,287.05Z"/><path class="cls-2" d="M872.53,366.75c17.79,2.33,32.71,6.19,39.88,23.77,3.87,9.49,9.44,18.3,14.42,27.32,1.88,3.4,2.72,6.57-.24,9.63s-6,1.73-9,.14c-9.94-5.23-19.69-10.85-29.8-15.71-11.35-5.45-17.55-14.25-19.51-26.44-.55-3.46-1.43-6.88-2-10.34C865.37,369,867.8,366.47,872.53,366.75Z"/><path class="cls-2" d="M871.37,446.35a121.33,121.33,0,0,1,21.15,4.46,26.56,26.56,0,0,1,16.19,13.5c6,11.36,12.15,22.63,18.29,33.9,1.67,3.07,2.75,6-.19,8.94s-5.82,2-9,.38c-12.35-6.12-24.41-12.78-36.29-19.76a23.14,23.14,0,0,1-10.41-12.7A102.44,102.44,0,0,1,866,454C865.32,448.58,868,446.17,871.37,446.35Z"/><path class="cls-2" d="M817.14,606.13c6.72-.08,9.45,2.4,8.6,7.78a122.39,122.39,0,0,1-5.1,21.14,22.53,22.53,0,0,1-10.06,12.18c-11.84,7.16-24,13.72-36.42,19.82-3.15,1.55-6.15,2.58-9-.24s-1.87-5.82-.28-9c5.84-11.48,12-22.75,18.28-34a27,27,0,0,1,19-14.09C807.57,608.53,813,607.12,817.14,606.13Z"/><path class="cls-2" d="M506.33,22c-1,12.93-1.95,27.45-13.33,38.6-3.63,3.56-6.74,6.35-11.57,1.54a10.76,10.76,0,0,0-7-3c-7.09.14-7.34-3.9-7.63-9.44-.7-13.73,7.27-23.31,15-32.91,3.88-4.82,8.05-9.53,13.81-12.67,5.3-2.9,7.82-1,9.44,3.78C506.45,11.91,506.44,16.15,506.33,22Z"/><path class="cls-1" d="M430.89,142.91c-.41-13.67,2.07-26.56,11.37-37.29,3.59-4.13,7.17-7.5,12.66-2.25,1.7,1.62,4.56,3.21,6.68,3,8.74-1,8.39,4.36,8.38,10.39,0,11.73-6.41,20.67-13.05,29.12-4.53,5.79-9.09,12-16.59,15.06-5.93,2.37-8.47,1.65-9.34-4.71C430.41,151.85,430.89,147.35,430.89,142.91Z"/><path class="cls-1" d="M438,84.62c-18.43-.76-29.68-10.72-40.62-21-3.95-3.69-9.21-8.49-6.13-14.15,2.72-5,9.46-4.74,15-4.62,15.73.34,30.86,2.39,42.88,14.23,3.12,3.06,3.45,5.16.36,8.31-2.37,2.43-5,5.24-4.73,8.93C445.25,83.21,442.55,85.87,438,84.62Z"/><path class="cls-2" d="M528.31,119.85c-10.59-1-21.26-1.51-31.23-6.46-4.59-2.27-7.21-6.21-10.8-9.3-1.84-1.57-1.31-3.15.17-4.78a21.84,21.84,0,0,0,6.09-14.52c0-3,1.46-4,4.31-4.05,8.3-.15,16.18.76,23.37,5.68,8.51,5.83,16.78,11.89,23.12,20.12,6,7.83,4.54,11.47-5.15,12.82C535,119.82,531.66,119.7,528.31,119.85Z"/><path class="cls-1" d="M438.7,0c8.35,1.88,13.7,8.21,19.63,13.53,1.08,1,1.87,2.34,3.07,3.45,3.62,3.35,5.92,6.8,2.84,12.45A38.62,38.62,0,0,0,460,55.12c.19,1.09.5,2.5-.87,3s-2.12-.44-2.92-1.39c-6.78-8.11-15-13.75-25.66-15.69-3.58-.65-5.65-3.27-5.37-7.67.54-8.33-1.26-16.84,2.59-24.86C430,3.86,433.25.72,438.7,0Z"/><path class="cls-1" d="M410,124.3c-4.66-.31-9.35-.34-14-1-7.9-1.09-11.74-8.68-9-16.14,3.59-9.83,12.31-15.15,18.91-22.29,1.67-1.8,5.2-1.7,7.34-.29,8.4,5.55,17.4,8.1,27.46,7a4.2,4.2,0,0,1,3.44,1.84c.78,1.64-1.38,2.09-2.29,3-6.72,6.62-13.33,13.24-15.37,23-.58,2.83-2.36,4.81-6,4.4a91.71,91.71,0,0,0-10.49-.09Z"/><path class="cls-2" d="M501.35,163.21,489,162.68c-6.36-5.1-12.9-10-17.9-16.56-1.24-1.64-3.1-3.33-1.59-5.55,7.06-10.35,8.1-22,7-34.72,4.5,1.37,5.8,5,8.33,7.09,5.92,5,12.11,9.34,19.88,10.88a4,4,0,0,1,3.21,2.3C512,134.85,508.42,155.48,501.35,163.21Z"/><path class="cls-2" d="M490.38,73.16c5.62-6.48,11.72-10.69,15.11-17.22.76-1.45,2.12-2.81,2.29-4.31,1.35-12.12,9.75-12.26,18.83-11.3a80.66,80.66,0,0,1,11.11,1.51c10.89,2.75,14,10.76,7.84,20.26-4.5,7-10.61,12.45-17,17.63a3.88,3.88,0,0,1-5.07.4A43.17,43.17,0,0,0,507.9,74C502.53,73.13,497.16,73.48,490.38,73.16Z"/><path class="cls-2" d="M468.5,100.06a17.3,17.3,0,1,1,.32-34.58A17,17,0,0,1,485.59,82.6C485.6,92.48,478.21,100,468.5,100.06Z"/><path class="cls-2" d="M469.42,993.86Q493.71,923,563,894.63c3.9-1.58,7.73-3.37,11.6-5,4.6-2,9.07-2.12,11.32,3.13s-.61,8.37-5.35,10.41c-8.16,3.52-16.49,6.74-24.36,10.83q-67,34.83-78.48,109.58c-.33,2.16.54,4.81-1.86,6.42Q472.67,1011.92,469.42,993.86Z"/><path class="cls-1" d="M339.89,996.49c-1.88,0-3.75,0-5.62,0-6.39-.09-9.27-4.29-6.87-10.25,2.81-7,5.37-14.13,8.78-20.82,3.14-6.16,9.72-8.51,15.6-11.13,10.68-4.76,21.57-9.08,32.47-13.34,2.95-1.16,6.85-2.47,9.13.39a8.63,8.63,0,0,1,.19,10c-8.48,12.8-16.43,26.09-27.05,37.23C359.53,995.91,349.47,996.1,339.89,996.49Z"/><path class="cls-2" d="M488.91,766.62c8,.49,15.74,1.47,23.44,1.32,10.8-.2,18.93,4.15,25.31,12.51,1.71,2.23,3.58,4.33,5.27,6.58,8.12,10.73,7.18,13.3-6.11,16.77-3.39.88-6.78,1.85-10.23,2.43-8.32,1.4-16.06.74-23.21-4.81-10-7.75-20.45-14.89-30.74-22.23-2.86-2-5.06-4.34-4-8.17s4.4-4.41,7.85-4.4Z"/></g></g></svg>